<svg version="1.1" xmlns="http://www.w3.org/2000/svg" viewBox="0 0 1038.1318969726562 655.3746337890625" width="2076.2637939453125" height="1310.749267578125">
  <!-- svg-source:excalidraw -->
  
  <defs>
    <style class="style-fonts">
      @font-face {
        font-family: "Virgil";
        src: url("https://excalidraw.com/Virgil.woff2");
      }
      @font-face {
        font-family: "Cascadia";
        src: url("https://excalidraw.com/Cascadia.woff2");
      }
      @font-face {
        font-family: "Assistant";
        src: url("https://excalidraw.com/Assistant-Regular.woff2");
      }
    </style>
    
  </defs>
  <rect x="0" y="0" width="1038.1318969726562" height="655.3746337890625" fill="#ffffff"></rect><g stroke-linecap="round" transform="translate(10 27.4420166015625) rotate(0 180.93753051757812 162.71987915039062)"><path d="M32 0 C140.25 -1.71, 247.23 -0.19, 329.88 0 M32 0 C92.79 -0.92, 154.77 -1.13, 329.88 0 M329.88 0 C349.85 0.19, 360.2 10.95, 361.88 32 M329.88 0 C350.95 -1.64, 360.94 9.67, 361.88 32 M361.88 32 C360.68 107.23, 361.59 186.4, 361.88 293.44 M361.88 32 C359.3 120.35, 360.21 210.51, 361.88 293.44 M361.88 293.44 C363.21 313.97, 352.07 325.24, 329.88 325.44 M361.88 293.44 C363.1 313.6, 352.84 323.14, 329.88 325.44 M329.88 325.44 C254.74 323.91, 176.88 323.22, 32 325.44 M329.88 325.44 C241.79 327.93, 152.9 327.17, 32 325.44 M32 325.44 C10.19 324.66, -1.08 314.13, 0 293.44 M32 325.44 C11.91 324.8, -1.19 313.29, 0 293.44 M0 293.44 C-0.97 216.42, -2.32 142.82, 0 32 M0 293.44 C1.24 213.15, 1.82 131.85, 0 32 M0 32 C1.46 11.91, 8.73 1.35, 32 0 M0 32 C0.88 9.15, 10.89 1.46, 32 0" stroke="#1e1e1e" stroke-width="2" fill="none"></path></g><g stroke-linecap="round" transform="translate(111.05670166015625 58.138092041015625) rotate(0 120.35052490234375 28.949050903320312)"><path d="M14.47 0 C95.54 1.08, 176.84 0.55, 226.23 0 M14.47 0 C87.75 -2.18, 161.58 -0.95, 226.23 0 M226.23 0 C236.24 1.58, 240.59 4.29, 240.7 14.47 M226.23 0 C235.84 -0.5, 240.13 5.98, 240.7 14.47 M240.7 14.47 C239.99 26.28, 239.09 35.7, 240.7 43.42 M240.7 14.47 C239.63 23.35, 240.35 33.41, 240.7 43.42 M240.7 43.42 C239.35 52, 236.46 57.31, 226.23 57.9 M240.7 43.42 C242.98 53.06, 233.58 57.44, 226.23 57.9 M226.23 57.9 C167.15 60.57, 104.03 58.51, 14.47 57.9 M226.23 57.9 C157.3 58.46, 90.68 58.56, 14.47 57.9 M14.47 57.9 C4.12 58.56, 0.93 53.17, 0 43.42 M14.47 57.9 C6.67 55.82, -0.54 52.94, 0 43.42 M0 43.42 C-0.07 35.56, -0.07 27.3, 0 14.47 M0 43.42 C-0.19 34.42, 0.72 26.3, 0 14.47 M0 14.47 C0.95 5.98, 4.36 1.7, 14.47 0 M0 14.47 C-1.9 2.79, 4.18 2.12, 14.47 0" stroke="#1e1e1e" stroke-width="2" fill="none"></path></g><g stroke-linecap="round" transform="translate(24.53582763671875 141.67393493652344) rotate(0 120.35052490234375 28.949050903320312)"><path d="M14.47 0 C79.96 -1.01, 146.2 -2.26, 226.23 0 M14.47 0 C95.71 2.46, 177.29 2.51, 226.23 0 M226.23 0 C237.82 -0.04, 241.28 5.82, 240.7 14.47 M226.23 0 C236.57 -0.5, 239.64 3.94, 240.7 14.47 M240.7 14.47 C242.11 23.19, 238.57 33.49, 240.7 43.42 M240.7 14.47 C241.29 24.21, 240.46 33.47, 240.7 43.42 M240.7 43.42 C239.76 52.53, 237.77 56, 226.23 57.9 M240.7 43.42 C242.52 55.16, 233.61 59.43, 226.23 57.9 M226.23 57.9 C173.3 58.31, 120.37 58.05, 14.47 57.9 M226.23 57.9 C161.69 56.84, 97.67 56.27, 14.47 57.9 M14.47 57.9 C6.02 57.77, -0.14 53.27, 0 43.42 M14.47 57.9 C5.25 56.67, 0.37 53.28, 0 43.42 M0 43.42 C-0.55 35.09, 0.12 28.52, 0 14.47 M0 43.42 C0.39 32.35, 0.02 21.49, 0 14.47 M0 14.47 C0.94 3.13, 5.49 -1.43, 14.47 0 M0 14.47 C1.97 3.06, 5.01 -0.44, 14.47 0" stroke="#1e1e1e" stroke-width="2" fill="none"></path></g><g stroke-linecap="round" transform="translate(126.1634521484375 228.9320068359375) rotate(0 114.582763671875 28.37591552734375)"><path d="M14.19 0 C85.05 -0.31, 154.57 0.12, 214.98 0 M14.19 0 C75.07 0.18, 135.96 0.73, 214.98 0 M214.98 0 C225.15 -1.77, 228.24 4.12, 229.17 14.19 M214.98 0 C223.89 1.59, 228.62 6.89, 229.17 14.19 M229.17 14.19 C228.55 21.48, 229.72 30.08, 229.17 42.56 M229.17 14.19 C228.51 24.05, 229.2 34.19, 229.17 42.56 M229.17 42.56 C229.57 52.13, 224.83 54.86, 214.98 56.75 M229.17 42.56 C227.88 49.85, 225.08 54.47, 214.98 56.75 M214.98 56.75 C138.55 58.23, 62.68 57.04, 14.19 56.75 M214.98 56.75 C166.25 57.11, 119.39 57.7, 14.19 56.75 M14.19 56.75 C4.26 55.58, 0.25 51.73, 0 42.56 M14.19 56.75 C5.17 57.22, 0.03 54.21, 0 42.56 M0 42.56 C0.12 32.32, 1.6 23.28, 0 14.19 M0 42.56 C-0.92 36.92, -0.14 30.71, 0 14.19 M0 14.19 C-1.56 6.02, 5.49 -0.96, 14.19 0 M0 14.19 C-0.06 4.8, 6.71 1.33, 14.19 0" stroke="#1e1e1e" stroke-width="2" fill="none"></path></g><g transform="translate(60.315185546875 341.11090087890625) rotate(0 89.83993530273438 25)"><text x="0" y="17.52" font-family="Virgil, Segoe UI Emoji" font-size="20px" fill="#1e1e1e" text-anchor="start" style="white-space: pre;" direction="ltr" dominant-baseline="alphabetic"></text><text x="0" y="42.519999999999996" font-family="Virgil, Segoe UI Emoji" font-size="20px" fill="#1e1e1e" text-anchor="start" style="white-space: pre;" direction="ltr" dominant-baseline="alphabetic">Streamlit chat UI</text></g><g stroke-linecap="round" transform="translate(604.5648803710938 10) rotate(0 211.78350830078125 173.28530883789062)"><path d="M32 0 C157.78 1, 282.11 2.92, 391.57 0 M32 0 C157.76 -1.12, 282.98 -0.96, 391.57 0 M391.57 0 C412.14 1.52, 425.05 9.51, 423.57 32 M391.57 0 C412.54 0.86, 422.77 12.88, 423.57 32 M423.57 32 C422.51 112.71, 423.71 191.05, 423.57 314.57 M423.57 32 C424.26 134.62, 424.52 238.15, 423.57 314.57 M423.57 314.57 C421.6 335.68, 411.47 345.8, 391.57 346.57 M423.57 314.57 C425.84 335.44, 413.58 344.49, 391.57 346.57 M391.57 346.57 C264.45 346.34, 134.91 347.48, 32 346.57 M391.57 346.57 C313.84 345.79, 236.08 346.42, 32 346.57 M32 346.57 C10.49 346.11, 0.76 336.61, 0 314.57 M32 346.57 C10.51 348.78, 0.59 338.11, 0 314.57 M0 314.57 C0.41 243.4, 0.32 173.02, 0 32 M0 314.57 C1.4 215.14, 2.28 116.24, 0 32 M0 32 C-0.87 12.38, 9.64 -0.46, 32 0 M0 32 C0.79 10.98, 11.71 1.01, 32 0" stroke="#1e1e1e" stroke-width="2" fill="none"></path></g><g transform="translate(668.7625122070312 153.325927734375) rotate(0 137.17990112304688 12.5)"><text x="0" y="17.52" font-family="Virgil, Segoe UI Emoji" font-size="20px" fill="#1e1e1e" text-anchor="start" style="white-space: pre;" direction="ltr" dominant-baseline="alphabetic">Llama Model using llama-cpp</text></g><g stroke-linecap="round"><g transform="translate(381.8201904296875 98.30859375) rotate(0 110.43936157226562 -0.77777099609375)"><path d="M-0.11 0.12 C36.66 -0.21, 184.73 -0.92, 221.55 -1.28 M-1.62 -0.86 C34.96 -1.63, 184.01 -3.23, 220.96 -3.25" stroke="#1e1e1e" stroke-width="2" fill="none"></path></g><g transform="translate(381.8201904296875 98.30859375) rotate(0 110.43936157226562 -0.77777099609375)"><path d="M197.52 5.45 C206.58 3.29, 215.74 -1.18, 220.96 -3.25 M197.52 5.45 C203.79 2.31, 210.3 0.44, 220.96 -3.25" stroke="#1e1e1e" stroke-width="2" fill="none"></path></g><g transform="translate(381.8201904296875 98.30859375) rotate(0 110.43936157226562 -0.77777099609375)"><path d="M197.41 -11.65 C206.61 -7.31, 215.82 -5.29, 220.96 -3.25 M197.41 -11.65 C203.79 -10.35, 210.33 -7.76, 220.96 -3.25" stroke="#1e1e1e" stroke-width="2" fill="none"></path></g></g><mask></mask><g stroke-linecap="round"><g transform="translate(601.9859008789062 219.92791748046875) rotate(0 -114.89614868164062 1.587066650390625)"><path d="M-0.04 -1.06 C-38.17 -0.5, -191.54 1.47, -229.69 2.31 M-1.52 1 C-39.73 1.78, -192.63 3.22, -230.59 3.39" stroke="#1e1e1e" stroke-width="2" fill="none"></path></g><g transform="translate(601.9859008789062 219.92791748046875) rotate(0 -114.89614868164062 1.587066650390625)"><path d="M-207.16 -5.34 C-214.26 -3.22, -219.2 -0.03, -230.59 3.39 M-207.16 -5.34 C-215.88 -1.9, -223.8 0.55, -230.59 3.39" stroke="#1e1e1e" stroke-width="2" fill="none"></path></g><g transform="translate(601.9859008789062 219.92791748046875) rotate(0 -114.89614868164062 1.587066650390625)"><path d="M-207.03 11.76 C-214.01 10.04, -218.98 9.39, -230.59 3.39 M-207.03 11.76 C-215.83 8.99, -223.79 5.22, -230.59 3.39" stroke="#1e1e1e" stroke-width="2" fill="none"></path></g></g><mask></mask><g transform="translate(436.06757008671764 66.84014892578125) rotate(2.175358030925152 37.35436594843867 12.955154418945312)"><text x="0" y="18.15794443359374" font-family="Virgil, Segoe UI Emoji" font-size="20.728247070312488px" fill="#1e1e1e" text-anchor="start" style="white-space: pre;" direction="ltr" dominant-baseline="alphabetic">query</text></g><g transform="translate(430.10052490234375 196.03857421875) rotate(0 53.51043701171875 12.5)"><text x="0" y="17.52" font-family="Virgil, Segoe UI Emoji" font-size="20px" fill="#1e1e1e" text-anchor="start" style="white-space: pre;" direction="ltr" dominant-baseline="alphabetic">Response</text></g><g transform="translate(684.7438354492188 366.00030517578125) rotate(0 161.9110107421875 12.5)"><text x="0" y="17.52" font-family="Virgil, Segoe UI Emoji" font-size="20px" fill="#1e1e1e" text-anchor="start" style="white-space: pre;" direction="ltr" dominant-baseline="alphabetic">Fastapi Server</text></g><g stroke-linecap="round"><g transform="translate(600.5238647460938 218.55291748046875) rotate(0 -57.748271406667754 125.59234619140625)"><path d="M1.1 -0.24 C-18.34 41.52, -96.91 209.31, -116.49 251.16 M0.22 -1.41 C-18.88 40.49, -95.27 210.44, -114.3 252.68" stroke="#1e1e1e" stroke-width="2" fill="none"></path></g><g transform="translate(600.5238647460938 218.55291748046875) rotate(0 -57.748271406667754 125.59234619140625)"><path d="M-112.45 227.75 C-113.3 233.95, -113.53 241.94, -114.3 252.68 M-112.45 227.75 C-113.98 235.31, -114.54 240.78, -114.3 252.68" stroke="#1e1e1e" stroke-width="2" fill="none"></path></g><g transform="translate(600.5238647460938 218.55291748046875) rotate(0 -57.748271406667754 125.59234619140625)"><path d="M-96.86 234.77 C-102.64 238.9, -107.77 244.69, -114.3 252.68 M-96.86 234.77 C-102.6 240.51, -107.41 244.07, -114.3 252.68" stroke="#1e1e1e" stroke-width="2" fill="none"></path></g></g><mask></mask><g stroke-linecap="round" transform="translate(344.3857421875 470.73760986328125) rotate(0 144.77310180664062 68.58590698242188)"><path d="M32 0 C93.31 -1.38, 154.52 -0.22, 257.55 0 M32 0 C112.45 -1.33, 193.07 -1.29, 257.55 0 M257.55 0 C279.48 -0.67, 288.22 10.23, 289.55 32 M257.55 0 C279.65 0.46, 288.64 9.93, 289.55 32 M289.55 32 C291.46 56.16, 288.74 77.05, 289.55 105.17 M289.55 32 C289.66 51.11, 289.94 70.43, 289.55 105.17 M289.55 105.17 C291.19 126.76, 277.06 136.9, 257.55 137.17 M289.55 105.17 C287.27 126.89, 281 137.21, 257.55 137.17 M257.55 137.17 C208.09 137.8, 161.83 140.01, 32 137.17 M257.55 137.17 C185.88 135.71, 115.56 135.65, 32 137.17 M32 137.17 C11.68 137.82, -1.46 125.27, 0 105.17 M32 137.17 C8.58 136.35, -1.32 128.1, 0 105.17 M0 105.17 C1.2 83.11, -1.29 60.54, 0 32 M0 105.17 C-0.74 89.38, -0.59 73.09, 0 32 M0 32 C0.14 10.61, 11.9 -1.23, 32 0 M0 32 C0.87 11.73, 10.71 1.89, 32 0" stroke="#1e1e1e" stroke-width="2" fill="none"></path></g><g transform="translate(376.12894439697266 501.8235168457031) rotate(0 113.02989959716797 37.5)"><text x="113.02989959716797" y="17.52" font-family="Virgil, Segoe UI Emoji" font-size="20px" fill="#1e1e1e" text-anchor="middle" style="white-space: pre;" direction="ltr" dominant-baseline="alphabetic">Logs</text><text x="113.02989959716797" y="42.519999999999996" font-family="Virgil, Segoe UI Emoji" font-size="20px" fill="#1e1e1e" text-anchor="middle" style="white-space: pre;" direction="ltr" dominant-baseline="alphabetic">(sqlmodel interface of </text><text x="113.02989959716797" y="67.52" font-family="Virgil, Segoe UI Emoji" font-size="20px" fill="#1e1e1e" text-anchor="middle" style="white-space: pre;" direction="ltr" dominant-baseline="alphabetic">fastapi with sqlite) </text></g><g transform="translate(397.67742919921875 620.3746337890625) rotate(0 91.7691650390625 12.5)"><text x="0" y="17.52" font-family="Virgil, Segoe UI Emoji" font-size="20px" fill="#1e1e1e" text-anchor="start" style="white-space: pre;" direction="ltr" dominant-baseline="alphabetic">Sqlite database</text></g></svg>